<?xml version="1.0" standalone="no"?>
<!DOCTYPE svg PUBLIC "-//W3C//DTD SVG 20010904//EN"
 "http://www.w3.org/TR/2001/REC-SVG-20010904/DTD/svg10.dtd">
<svg version="1.0" xmlns="http://www.w3.org/2000/svg"
 width="800.000000pt" height="800.000000pt" viewBox="0 0 800.000000 800.000000"
 preserveAspectRatio="xMidYMid meet">
<metadata>
Created by potrace 1.11, written by Peter Selinger 2001-2013
</metadata>
<g transform="translate(0.000000,800.000000) scale(0.100000,-0.100000)"
fill="#000000" stroke="none">
<path d="M0 4000 l0 -4000 4000 0 4000 0 0 4000 0 4000 -4000 0 -4000 0 0
-4000z m4236 3360 c1012 -79 1908 -588 2491 -1415 436 -619 651 -1400 593
-2151 -76 -981 -551 -1844 -1339 -2437 -622 -468 -1447 -708 -2227 -647 -1012
79 -1908 588 -2491 1415 -436 619 -651 1400 -593 2151 79 1012 588 1908 1415
2491 618 436 1401 651 2151 593z"/>
<path d="M3832 4038 c-166 -695 -305 -1278 -308 -1295 l-6 -33 176 0 c174 0
176 0 181 23 59 248 617 2546 620 2555 3 9 -36 12 -178 12 l-182 0 -303 -1262z"/>
<path d="M2730 4669 c-344 -149 -730 -315 -857 -371 l-233 -100 0 -207 0 -206
853 -369 c468 -203 855 -371 860 -373 4 -3 6 104 5 238 l-3 241 -588 233
c-324 128 -590 235 -592 237 -3 2 260 105 583 227 323 123 590 227 595 231 4
3 6 115 5 248 l-3 241 -625 -270z"/>
<path d="M4652 4690 l3 -242 594 -231 c399 -156 589 -234 580 -240 -8 -5 -275
-111 -594 -237 l-580 -228 -3 -242 c-1 -135 2 -240 6 -238 5 1 392 170 861
373 l851 370 -2 208 -3 208 -845 365 c-465 201 -851 368 -858 371 -10 4 -12
-44 -10 -237z"/>
</g>
</svg>
